HIERARCHY
ROOT Hips
{
	OFFSET 0.000000 97.167313 0.000000
	CHANNELS 6 Xposition Yposition Zposition Xrotation Yrotation Zrotation
	JOINT Spine
	{
		OFFSET 0.000000 13.784798 0.064400
		CHANNELS 3 Xrotation Yrotation Zrotation
		JOINT Spine1
		{
			OFFSET 0.000000 12.037903 0.404700
			CHANNELS 3 Xrotation Yrotation Zrotation
			JOINT Spine2
			{
				OFFSET 0.000000 17.795601 0.420200
				CHANNELS 3 Xrotation Yrotation Zrotation
				JOINT Neck
				{
					OFFSET 0.000000 39.131302 11.954600
					CHANNELS 3 Xrotation Yrotation Zrotation
					JOINT Head
					{
						OFFSET 0.000000 14.456192 15.627699
						CHANNELS 3 Xrotation Yrotation Zrotation
						JOINT HeadTop_End
						{
							OFFSET 0.000000 15.703506 7.603401
							CHANNELS 3 Xrotation Yrotation Zrotation
							End Site
							{
								OFFSET 0.000000 17.447403 0.000000
							}
						}
					}
				}
				JOINT LeftShoulder
				{
					OFFSET 17.399500 24.608795 1.168800
					CHANNELS 3 Xrotation Yrotation Zrotation
					JOINT LeftArm
					{
						OFFSET 18.980635 5.765305 1.818600
						CHANNELS 3 Xrotation Yrotation Zrotation
						JOINT LeftForeArm
						{
							OFFSET 49.290169 0.000000 0.000000
							CHANNELS 3 Xrotation Yrotation Zrotation
							JOINT LeftHand
							{
								OFFSET 31.562012 0.000000 0.000000
								CHANNELS 3 Xrotation Yrotation Zrotation
								JOINT LeftHandThumb1
								{
									OFFSET 6.133995 -4.388519 7.076070
									CHANNELS 3 Xrotation Yrotation Zrotation
									JOINT LeftHandThumb2
									{
										OFFSET 6.037666 -3.485840 3.485847
										CHANNELS 3 Xrotation Yrotation Zrotation
										JOINT LeftHandThumb3
										{
											OFFSET 6.496506 -3.750763 3.750761
											CHANNELS 3 Xrotation Yrotation Zrotation
											JOINT LeftHandThumb4
											{
												OFFSET 5.616882 -3.242905 3.242910
												CHANNELS 3 Xrotation Yrotation Zrotation
												End Site
												{
													OFFSET -1.254608 7.132141 0.375429
												}
											}
										}
									}
								}
								JOINT LeftHandPinky1
								{
									OFFSET 18.920792 -0.453171 -11.426712
									CHANNELS 3 Xrotation Yrotation Zrotation
									JOINT LeftHandPinky2
									{
										OFFSET 4.919586 0.000000 0.000000
										CHANNELS 3 Xrotation Yrotation Zrotation
										JOINT LeftHandPinky3
										{
											OFFSET 5.233047 0.000000 0.000000
											CHANNELS 3 Xrotation Yrotation Zrotation
											JOINT LeftHandPinky4
											{
												OFFSET 5.571716 0.000000 0.000000
												CHANNELS 3 Xrotation Yrotation Zrotation
												End Site
												{
													OFFSET -3.459808 4.342407 -0.466164
												}
											}
										}
									}
								}
								JOINT LeftHandRing1
								{
									OFFSET 22.726120 -0.094986 -6.500475
									CHANNELS 3 Xrotation Yrotation Zrotation
									JOINT LeftHandRing2
									{
										OFFSET 6.408615 0.000000 0.000000
										CHANNELS 3 Xrotation Yrotation Zrotation
										JOINT LeftHandRing3
										{
											OFFSET 6.150223 0.000000 0.000000
											CHANNELS 3 Xrotation Yrotation Zrotation
											JOINT LeftHandRing4
											{
												OFFSET 6.145386 0.000000 0.000000
												CHANNELS 3 Xrotation Yrotation Zrotation
												End Site
												{
													OFFSET -3.671402 4.923981 -0.202372
												}
											}
										}
									}
								}
								JOINT LeftHandMiddle1
								{
									OFFSET 23.373947 0.000000 0.000001
									CHANNELS 3 Xrotation Yrotation Zrotation
									JOINT LeftHandMiddle2
									{
										OFFSET 6.996567 0.000000 0.000000
										CHANNELS 3 Xrotation Yrotation Zrotation
										JOINT LeftHandMiddle3
										{
											OFFSET 7.015945 0.000000 0.000000
											CHANNELS 3 Xrotation Yrotation Zrotation
											JOINT LeftHandMiddle4
											{
												OFFSET 7.721573 0.000000 0.000000
												CHANNELS 3 Xrotation Yrotation Zrotation
												End Site
												{
													OFFSET -4.651108 6.158463 0.251582
												}
											}
										}
									}
								}
								JOINT LeftHandIndex1
								{
									OFFSET 21.310577 -0.490082 6.209344
									CHANNELS 3 Xrotation Yrotation Zrotation
									JOINT LeftHandIndex2
									{
										OFFSET 7.536453 0.000000 0.000000
										CHANNELS 3 Xrotation Yrotation Zrotation
										JOINT LeftHandIndex3
										{
											OFFSET 7.512344 0.000000 0.000000
											CHANNELS 3 Xrotation Yrotation Zrotation
											JOINT LeftHandIndex4
											{
												OFFSET 10.212402 0.000000 0.000001
												CHANNELS 3 Xrotation Yrotation Zrotation
												End Site
												{
													OFFSET -5.180801 8.690506 1.388433
												}
											}
										}
									}
								}
							}
						}
					}
				}
				JOINT RightShoulder
				{
					OFFSET -17.399500 24.608795 1.168800
					CHANNELS 3 Xrotation Yrotation Zrotation
					JOINT RightArm
					{
						OFFSET -18.980635 5.765305 1.818600
						CHANNELS 3 Xrotation Yrotation Zrotation
						JOINT RightForeArm
						{
							OFFSET -49.290169 0.000000 0.000000
							CHANNELS 3 Xrotation Yrotation Zrotation
							JOINT RightHand
							{
								OFFSET -31.562012 0.000000 0.000000
								CHANNELS 3 Xrotation Yrotation Zrotation
								JOINT RightHandThumb1
								{
									OFFSET -6.133995 -4.388519 7.076070
									CHANNELS 3 Xrotation Yrotation Zrotation
									JOINT RightHandThumb2
									{
										OFFSET -6.037666 -3.485840 3.485847
										CHANNELS 3 Xrotation Yrotation Zrotation
										JOINT RightHandThumb3
										{
											OFFSET -6.496506 -3.750763 3.750761
											CHANNELS 3 Xrotation Yrotation Zrotation
											JOINT RightHandThumb4
											{
												OFFSET -5.616882 -3.242905 3.242910
												CHANNELS 3 Xrotation Yrotation Zrotation
												End Site
												{
													OFFSET 1.254608 7.132141 0.375429
												}
											}
										}
									}
								}
								JOINT RightHandIndex1
								{
									OFFSET -21.310577 -0.490082 6.209344
									CHANNELS 3 Xrotation Yrotation Zrotation
									JOINT RightHandIndex2
									{
										OFFSET -7.536453 0.000000 0.000000
										CHANNELS 3 Xrotation Yrotation Zrotation
										JOINT RightHandIndex3
										{
											OFFSET -7.512344 0.000000 0.000000
											CHANNELS 3 Xrotation Yrotation Zrotation
											JOINT RightHandIndex4
											{
												OFFSET -10.212402 0.000000 0.000001
												CHANNELS 3 Xrotation Yrotation Zrotation
												End Site
												{
													OFFSET 5.180801 8.690506 1.388433
												}
											}
										}
									}
								}
								JOINT RightHandMiddle1
								{
									OFFSET -23.373947 0.000000 0.000001
									CHANNELS 3 Xrotation Yrotation Zrotation
									JOINT RightHandMiddle2
									{
										OFFSET -6.996567 0.000000 0.000000
										CHANNELS 3 Xrotation Yrotation Zrotation
										JOINT RightHandMiddle3
										{
											OFFSET -7.015945 0.000000 0.000000
											CHANNELS 3 Xrotation Yrotation Zrotation
											JOINT RightHandMiddle4
											{
												OFFSET -7.721573 0.000000 0.000000
												CHANNELS 3 Xrotation Yrotation Zrotation
												End Site
												{
													OFFSET 4.651108 6.158463 0.251582
												}
											}
										}
									}
								}
								JOINT RightHandRing1
								{
									OFFSET -22.726120 -0.094986 -6.500475
									CHANNELS 3 Xrotation Yrotation Zrotation
									JOINT RightHandRing2
									{
										OFFSET -6.408615 0.000000 0.000000
										CHANNELS 3 Xrotation Yrotation Zrotation
										JOINT RightHandRing3
										{
											OFFSET -6.150223 0.000000 0.000000
											CHANNELS 3 Xrotation Yrotation Zrotation
											JOINT RightHandRing4
											{
												OFFSET -6.145386 0.000000 0.000000
												CHANNELS 3 Xrotation Yrotation Zrotation
												End Site
												{
													OFFSET 3.671402 4.923981 -0.202372
												}
											}
										}
									}
								}
								JOINT RightHandPinky1
								{
									OFFSET -18.920792 -0.453171 -11.426712
									CHANNELS 3 Xrotation Yrotation Zrotation
									JOINT RightHandPinky2
									{
										OFFSET -4.919586 0.000000 0.000000
										CHANNELS 3 Xrotation Yrotation Zrotation
										JOINT RightHandPinky3
										{
											OFFSET -5.233047 0.000000 0.000000
											CHANNELS 3 Xrotation Yrotation Zrotation
											JOINT RightHandPinky4
											{
												OFFSET -5.571716 0.000000 0.000000
												CHANNELS 3 Xrotation Yrotation Zrotation
												End Site
												{
													OFFSET 3.459808 4.342407 -0.466164
												}
											}
										}
									}
								}
							}
						}
					}
				}
			}
		}
	}
	JOINT LeftUpLeg
	{
		OFFSET 19.899099 -7.885101 -3.429500
		CHANNELS 3 Xrotation Yrotation Zrotation
		JOINT LeftLeg
		{
			OFFSET 1.745560 -36.997807 10.304700
			CHANNELS 3 Xrotation Yrotation Zrotation
			JOINT LeftFoot
			{
				OFFSET -1.745558 -29.803308 -13.615400
				CHANNELS 3 Xrotation Yrotation Zrotation
				JOINT LeftToeBase
				{
					OFFSET 1.181900 -18.539904 15.226099
					CHANNELS 3 Xrotation Yrotation Zrotation
					JOINT LeftToe_End
					{
						OFFSET -0.863701 1.402801 16.534700
						CHANNELS 3 Xrotation Yrotation Zrotation
						End Site
						{
							OFFSET 0.000000 16.616566 0.000000
						}
					}
				}
			}
		}
	}
	JOINT RightUpLeg
	{
		OFFSET -19.899099 -7.885101 -3.429500
		CHANNELS 3 Xrotation Yrotation Zrotation
		JOINT RightLeg
		{
			OFFSET -1.745560 -36.997807 10.304700
			CHANNELS 3 Xrotation Yrotation Zrotation
			JOINT RightFoot
			{
				OFFSET 1.745558 -29.803308 -13.615400
				CHANNELS 3 Xrotation Yrotation Zrotation
				JOINT RightToeBase
				{
					OFFSET -1.181900 -18.539904 15.226099
					CHANNELS 3 Xrotation Yrotation Zrotation
					JOINT RightToe_End
					{
						OFFSET 0.863701 1.402801 16.534700
						CHANNELS 3 Xrotation Yrotation Zrotation
						End Site
						{
							OFFSET 0.000000 16.616566 0.000000
						}
					}
				}
			}
		}
	}
}
MOTION
Frames: 4
Frame Time: 0.033333
-14.846974 34.938423 -113.714012 -95.550713 -1.587554 11.311739 3.382008 2.933088 3.256451 1.521102 0.640215 -0.679600 1.571460 0.476072 -0.674654 9.651486 2.016837 -14.021231 17.906376 -9.649531 15.479299 -0.000001 0.000000 -0.000000 5.023740 -5.380141 3.182536 -5.289239 10.026104 9.405407 0.000022 -70.864907 -0.000001 -44.569696 -21.476784 41.144602 -10.355870 -18.164511 -0.612243 10.166260 44.439202 3.473508 -4.021227 34.356302 21.444146 0.000000 -0.000002 -0.000003 14.702267 10.907150 -74.390309 1.209276 3.566049 -37.454708 1.122286 3.449702 -36.032899 -0.000001 0.000000 -0.000002 6.551730 9.294153 -62.102798 1.254725 3.624474 -38.179408 0.629960 2.644684 -26.791716 -0.000003 0.000002 0.000003 2.431932 7.055181 -53.394072 0.755387 2.879427 -29.394597 0.393628 2.113006 -21.102564 0.000000 -0.000002 0.000009 -1.623605 2.464333 -39.970093 0.755408 2.879438 -29.394604 0.393630 2.112998 -21.102590 0.000002 0.000001 0.000003 -4.610216 -10.434469 -10.246669 -13.404875 -36.593828 52.912004 0.000259 83.070858 -0.000231 -0.020346 -24.835312 -23.719866 -6.354849 5.818842 -4.579871 5.831071 -10.215419 -1.731907 -5.361427 8.778900 -20.905720 -0.000001 -0.000001 0.000001 -1.299983 13.078152 5.656001 0.436522 -1.970343 24.980657 0.006687 -0.249850 3.068567 -0.000005 -0.000001 -0.000001 -0.422451 -1.533013 17.760013 0.443279 -1.984816 25.177057 0.006757 -0.251016 3.082840 -0.000002 0.000002 -0.000004 3.553128 -12.407523 20.390889 0.780247 -2.582393 33.617973 0.054505 -0.711180 8.764842 -0.000002 0.000001 -0.000003 10.184850 -22.272140 28.109468 0.638517 -2.355568 30.328960 0.227115 -1.438053 17.948805 0.000000 0.000000 0.000000 -54.001176 -2.232816 18.784936 16.054366 3.385335 -3.744876 7.595399 11.034390 -27.457364 -0.000003 0.000004 0.000004 -0.000004 0.000001 0.000000 -52.269710 -3.250435 -20.907207 19.282307 -8.079012 8.525955 24.099768 0.679029 32.859063 0.000003 0.000007 -0.000017 -0.000003 0.000000 -0.000001 
-15.589909 35.563232 -113.439064 -95.093514 -1.546225 12.132253 2.856864 1.649247 1.417558 1.217153 0.998566 -0.839875 0.338783 0.870668 -0.841129 11.403948 1.931308 -13.713440 19.228354 -8.571612 14.477626 -0.000004 0.000000 -0.000000 5.130696 -5.723744 2.805706 -5.096796 10.055537 7.659165 0.000084 -83.225035 0.000080 -34.458168 -9.118747 30.146621 -10.355882 -18.164523 -0.612246 10.166242 44.439191 3.473532 -4.021205 34.356306 21.444120 0.000000 0.000002 -0.000003 14.702252 10.907150 -74.390302 2.119187 4.509647 -50.322119 1.122281 3.449730 -36.032875 -0.000000 0.000001 0.000001 6.551756 9.294150 -62.102785 2.176594 4.556471 -51.048499 0.629958 2.644695 -26.791724 -0.000003 0.000001 -0.000000 2.431934 7.055184 -53.394089 1.522982 3.941076 -42.243559 0.393620 2.112999 -21.102561 -0.000001 -0.000001 0.000008 -1.623607 2.464333 -39.970103 1.522982 3.941078 -42.243555 0.393624 2.112998 -21.102561 -0.000001 0.000003 0.000001 -4.179212 -10.415632 -10.455702 -9.194720 -34.507475 57.032483 -0.003526 92.169441 0.003640 -3.007547 -23.230148 -25.941197 -5.425824 2.286475 -5.764612 4.677991 -1.583730 -0.842407 -7.273708 20.425326 -20.479016 -0.000002 -0.000001 -0.000000 1.195516 16.202404 -2.891548 0.116123 -1.034576 12.807841 0.001133 0.102911 -1.263329 -0.000001 0.000000 -0.000001 -0.347013 -0.255508 9.427793 0.120237 -1.052523 13.033881 0.001104 0.101464 -1.245616 0.000001 -0.000000 -0.000001 2.005155 -13.066901 10.339943 0.321811 -1.702771 21.403031 0.013969 -0.360832 4.433912 -0.000001 0.000002 -0.000007 6.378055 -24.330852 15.998151 0.218783 -1.412051 17.613369 0.130930 -1.097680 13.603672 -0.000000 -0.000001 0.000004 -56.555271 -2.329777 19.758880 16.092049 2.630150 -4.426649 9.491468 3.408687 -30.544264 -0.000002 0.000001 -0.000002 0.000003 -0.000000 0.000000 -57.122125 -1.607454 -19.751946 23.452703 -3.001358 8.896639 21.034488 2.521202 31.028344 -0.000002 -0.000003 -0.000001 -0.000000 0.000000 -0.000000 
-16.223221 35.542194 -113.170845 -94.463873 -1.366432 13.528631 2.261951 -0.001861 -0.669207 1.175673 1.268836 -1.047749 -1.841234 1.187631 -1.013202 11.970445 2.093160 -13.321172 19.405807 -7.067620 13.060199 -0.000000 0.000000 0.000000 5.307828 -5.810036 2.900365 -4.568932 10.823502 2.495447 -0.000175 -93.322821 -0.000154 -28.299733 -6.330779 25.336032 -10.355882 -18.164535 -0.612244 10.166260 44.439202 3.473532 -4.021229 34.356309 21.444149 -0.000003 -0.000003 0.000001 14.702286 10.907151 -74.390295 3.448402 5.336553 -65.717854 1.122279 3.449729 -36.032888 0.000001 0.000000 -0.000006 6.551736 9.294139 -62.102792 3.516316 5.366557 -66.446034 0.629964 2.644688 -26.791723 -0.000001 -0.000001 0.000003 2.431952 7.055174 -53.394092 2.721356 4.946114 -57.618089 0.393622 2.113007 -21.102561 -0.000000 -0.000001 0.000001 -1.623598 2.464334 -39.970110 2.721362 4.946127 -57.618082 0.393629 2.113006 -21.102559 -0.000001 0.000000 -0.000002 -3.428587 -8.753383 -11.114046 -4.392784 -33.483274 62.117429 0.000037 100.372376 -0.000035 -5.024960 -21.038386 -30.104909 -5.294316 1.758735 -5.936056 4.495359 -0.299767 -0.695501 -7.617521 22.149467 -20.374825 -0.000000 -0.000002 0.000001 1.642488 16.627119 -4.191968 0.085706 -0.890292 10.997098 0.002585 0.155442 -1.908507 -0.000002 0.000004 0.000001 -0.313176 -0.065512 8.187106 0.089299 -0.908591 11.226096 0.002539 0.153963 -1.890292 -0.000000 0.000000 -0.000004 1.748745 -13.138724 8.836886 0.270025 -1.564269 19.586331 0.010204 -0.308423 3.788914 -0.000002 0.000000 0.000005 5.735233 -24.560285 14.154678 0.174768 -1.265144 15.729704 0.118827 -1.046391 12.956605 -0.000000 0.000001 0.000004 -59.331914 -2.702924 18.186164 17.247918 -6.235555 -3.462642 9.465853 0.886053 -30.361434 -0.000003 -0.000002 -0.000005 0.000004 0.000000 0.000000 -61.103508 0.367606 -18.260045 28.035541 -0.531707 8.177744 19.718715 2.188258 28.920609 -0.000007 0.000002 0.000015 0.000002 -0.000000 0.000002 
-16.353188 35.192863 -113.014305 -93.804145 -1.475150 14.765508 1.800631 -0.955687 -1.901418 1.320408 1.285585 -1.174850 -3.979350 1.251099 -1.088018 12.151197 2.400724 -12.852390 20.157813 -5.066507 11.391450 -0.000002 0.000000 -0.000000 5.414533 -5.991912 2.279854 -2.793277 12.117829 -5.101151 -0.000167 -101.297204 -0.000189 -27.925884 -9.179459 23.481671 -10.355879 -18.164526 -0.612247 10.166244 44.439191 3.473512 -4.021235 34.356309 21.444127 0.000001 0.000001 -0.000001 14.702276 10.907135 -74.390288 4.700681 5.737232 -78.642047 1.122279 3.449723 -36.032888 -0.000001 0.000001 0.000001 6.551722 9.294135 -62.102792 4.773668 5.751332 -79.371190 0.629954 2.644674 -26.791726 -0.000001 0.000001 0.000005 2.431941 7.055168 -53.394075 3.903782 5.518572 -70.529285 0.393620 2.112999 -21.102564 -0.000000 -0.000001 0.000004 -1.623585 2.464309 -39.970107 3.903763 5.518575 -70.529271 0.393610 2.113005 -21.102571 -0.000000 0.000003 0.000002 -2.621747 -6.459713 -12.069443 0.052561 -32.643967 67.258956 0.000202 107.580909 -0.000182 -5.666418 -18.714163 -33.970735 -5.294314 1.758737 -5.936056 4.495354 -0.299764 -0.695504 -7.617537 22.149458 -20.374821 0.000001 0.000001 -0.000000 1.642492 16.627126 -4.191960 0.085708 -0.890291 10.997101 0.002587 0.155446 -1.908509 -0.000001 -0.000003 -0.000001 -0.313170 -0.065512 8.187116 0.089300 -0.908587 11.226118 0.002542 0.153958 -1.890297 0.000000 0.000000 -0.000001 1.748751 -13.138728 8.836883 0.270023 -1.564270 19.586350 0.010205 -0.308426 3.788924 -0.000002 -0.000000 -0.000003 5.735234 -24.560290 14.154685 0.174769 -1.265136 15.729695 0.118827 -1.046391 12.956610 0.000002 -0.000000 0.000002 -59.388447 -2.701890 17.166420 19.393207 -9.625266 -2.722093 8.680555 0.825075 -27.611636 -0.000007 -0.000001 0.000003 0.000002 -0.000001 -0.000000 -63.870499 1.831763 -16.785379 31.609344 -0.622571 7.199380 20.966082 2.321113 26.130176 0.000001 0.000005 -0.000008 0.000003 0.000001 -0.000001 
